<svg width="42" height="49" viewBox="0 0 42 49" fill="none" xmlns="http://www.w3.org/2000/svg">
<path d="M32.7727 16.3182C32.3939 15.0909 31.8712 13.9924 31.2045 13.0227C30.553 12.0379 29.7652 11.197 28.8409 10.5C27.9318 9.80303 26.8864 9.2803 25.7045 8.93182C24.5227 8.56818 23.2348 8.38636 21.8409 8.38636C19.3409 8.38636 17.1136 9.01515 15.1591 10.2727C13.2045 11.5303 11.6667 13.3788 10.5455 15.8182C9.43939 18.2424 8.88636 21.197 8.88636 24.6818C8.88636 28.197 9.43939 31.1742 10.5455 33.6136C11.6515 36.053 13.1894 37.9091 15.1591 39.1818C17.1288 40.4394 19.4167 41.0682 22.0227 41.0682C24.3864 41.0682 26.4318 40.6136 28.1591 39.7045C29.9015 38.7955 31.2424 37.5076 32.1818 35.8409C33.1212 34.1591 33.5909 32.1894 33.5909 29.9318L35.5 30.2273H22.8636V23.6364H41.75V29.2273C41.75 33.2121 40.9015 36.6591 39.2045 39.5682C37.5076 42.4773 35.1742 44.7197 32.2045 46.2955C29.2348 47.8561 25.8258 48.6364 21.9773 48.6364C17.6894 48.6364 13.9242 47.6742 10.6818 45.75C7.45455 43.8106 4.93182 41.0606 3.11364 37.5C1.31061 33.9242 0.409091 29.6818 0.409091 24.7727C0.409091 21.0152 0.939394 17.6591 2 14.7045C3.07576 11.75 4.57576 9.24242 6.5 7.18182C8.42424 5.10606 10.6818 3.5303 13.2727 2.45454C15.8636 1.36363 18.6818 0.81818 21.7273 0.81818C24.303 0.81818 26.7045 1.19697 28.9318 1.95454C31.1591 2.69697 33.1364 3.75757 34.8636 5.13636C36.6061 6.51515 38.0379 8.15151 39.1591 10.0455C40.2803 11.9394 41.0152 14.0303 41.3636 16.3182H32.7727Z" fill="#FF7A00"/>
</svg>